<svg width="36" height="26" viewBox="0 0 36 26" fill="none" xmlns="http://www.w3.org/2000/svg">
<g clip-path="url(#clip0_15_2)">
<g clip-path="url(#clip1_15_2)">
<path d="M51 -0.15387H0V26.1538H51V-0.15387Z" fill="#00993E"/>
<path d="M51 3.60437H0V7.3626H51V3.60437Z" fill="white"/>
<path d="M51 11.1208H0V14.8791H51V11.1208Z" fill="white"/>
<path d="M51 18.6374H0V22.3956H51V18.6374Z" fill="white"/>
<path d="M19.38 -0.15387H0V11.1208H19.38V-0.15387Z" fill="#C8312A"/>
<path d="M8.1899 6.14429C8.1899 6.14429 8.02288 6.21647 8.13729 7.59201C8.2307 8.7242 8.6217 9.09304 8.6217 9.09304L8.79247 9.79387L10.4122 9.80071C10.4122 9.80071 10.4416 9.36672 10.5043 9.22949C10.6584 8.89231 11.2692 8.5069 11.531 7.92497C11.8125 7.57026 11.6715 6.84636 12.2366 6.14763C12.5172 5.80063 11.9079 5.94751 11.9079 5.94751C11.5738 6.17613 11.4105 6.44447 11.3262 6.63195C11.2695 6.99316 11.0075 7.29517 10.9827 7.03288C10.9827 7.03288 10.8875 6.57934 10.6019 5.69768C10.5736 5.43635 10.4511 4.5326 10.4249 3.84281C10.4063 3.394 10.0255 3.36699 9.99369 3.82255L9.9477 5.62858L9.85667 3.54273C9.81799 2.95238 9.38509 3.0399 9.3663 3.52913L9.34769 5.70101L9.26881 3.59569C9.15151 3.19354 8.8433 3.43188 8.8376 3.86754L8.78507 5.91603C8.78507 5.91603 8.71869 4.79418 8.70373 4.32047C8.68962 4.03556 8.36619 4.0566 8.33568 4.46393C8.29165 5.05305 8.22237 5.53387 8.1899 6.14429Z" fill="white"/>
<path d="M9.19751 2.2989L9.69 0.735168L10.1825 2.2989L8.89313 1.33253H10.4868L9.19751 2.2989Z" fill="white"/>
<path d="M13.0273 2.92274L11.738 1.95628H13.3316L12.0423 2.92274L12.5348 1.35901L13.0273 2.92274Z" fill="white"/>
<path d="M15.4611 4.78077L14.1718 3.81431H15.7654L14.4761 4.78077L14.9686 3.21704L15.4611 4.78077Z" fill="white"/>
<path d="M16.8711 7.40504L15.5818 6.43858H17.1754L15.8861 7.40504L16.3786 5.84131L16.8711 7.40504Z" fill="white"/>
<path d="M6.35272 2.92274L7.64209 1.95628H6.04834L7.3377 2.92274L6.84521 1.35901L6.35272 2.92274Z" fill="white"/>
<path d="M3.91883 4.78077L5.2082 3.81431H3.61453L4.9039 4.78077L4.41132 3.21704L3.91883 4.78077Z" fill="white"/>
<path d="M2.50885 7.40504L3.79822 6.43858H2.20447L3.49383 7.40504L3.00134 5.84131L2.50885 7.40504Z" fill="white"/>
</g>
</g>
<defs>
<clipPath id="clip0_15_2">
<rect width="36" height="26" rx="4" fill="white"/>
</clipPath>
<clipPath id="clip1_15_2">
<rect width="51" height="38" fill="white" transform="translate(0 -6)"/>
</clipPath>
</defs>
</svg>
