<svg width="36" height="26" viewBox="0 0 36 26" fill="none" xmlns="http://www.w3.org/2000/svg">
<g clip-path="url(#clip0_10_6)">
<g clip-path="url(#clip1_10_6)">
<path d="M-2 0H37V26H-2V0Z" fill="white"/>
<path d="M13.1667 0H21.8333V26H13.1667V0Z" fill="#DC171D"/>
<path d="M-2 8.66669H37V17.3334H-2V8.66669Z" fill="#012A87"/>
<path d="M17.5 9.02777L17.1652 10.0581L17.6804 10.2255L17.5 9.02777Z" fill="white"/>
<path d="M17.5 9.02777L17.8348 10.0581L17.3196 10.2255L17.5 9.02777Z" fill="white"/>
<path d="M18.5303 9.77631H17.4469V10.318L18.5303 9.77631Z" fill="white"/>
<path d="M18.5303 9.77631L17.6538 10.4131L17.3355 9.97486L18.5303 9.77631Z" fill="white"/>
<path d="M16.4697 9.77637L17.3461 10.4131L17.6645 9.97492L16.4697 9.77637Z" fill="white"/>
<path d="M16.4697 9.77637H17.553V10.318L16.4697 9.77637Z" fill="white"/>
<path d="M18.1367 10.9875L17.802 9.95724L17.2868 10.1246L18.1367 10.9875Z" fill="white"/>
<path d="M18.1367 10.9875L17.2603 10.3508L17.5787 9.91256L18.1367 10.9875Z" fill="white"/>
<path d="M16.8632 10.9875L17.7397 10.3508L17.4213 9.91256L16.8632 10.9875Z" fill="white"/>
<path d="M16.8632 10.9875L17.198 9.95724L17.7131 10.1246L16.8632 10.9875Z" fill="white"/>
<path d="M23.2778 11.421L22.943 12.4513L23.4582 12.6187L23.2778 11.421Z" fill="white"/>
<path d="M23.2778 11.421L23.6126 12.4513L23.0974 12.6187L23.2778 11.421Z" fill="white"/>
<path d="M24.3081 12.1696H23.2247V12.7112L24.3081 12.1696Z" fill="white"/>
<path d="M24.3081 12.1696L23.4316 12.8063L23.1133 12.3681L24.3081 12.1696Z" fill="white"/>
<path d="M22.2475 12.1696L23.1239 12.8064L23.4423 12.3682L22.2475 12.1696Z" fill="white"/>
<path d="M22.2475 12.1696H23.3308V12.7113L22.2475 12.1696Z" fill="white"/>
<path d="M23.9146 13.3808L23.5798 12.3505L23.0646 12.5179L23.9146 13.3808Z" fill="white"/>
<path d="M23.9146 13.3808L23.0381 12.744L23.3565 12.3058L23.9146 13.3808Z" fill="white"/>
<path d="M22.641 13.3808L23.5175 12.744L23.1991 12.3058L22.641 13.3808Z" fill="white"/>
<path d="M22.641 13.3808L22.9758 12.3505L23.4909 12.5179L22.641 13.3808Z" fill="white"/>
<path d="M19.8932 14.8055L19.5585 15.8359L20.0736 16.0032L19.8932 14.8055Z" fill="white"/>
<path d="M19.8932 14.8055L20.228 15.8359L19.7129 16.0032L19.8932 14.8055Z" fill="white"/>
<path d="M20.9235 15.5541H19.8402V16.0957L20.9235 15.5541Z" fill="white"/>
<path d="M20.9235 15.5541L20.0471 16.1908L19.7287 15.7526L20.9235 15.5541Z" fill="white"/>
<path d="M18.8629 15.5541L19.7394 16.1909L20.0577 15.7527L18.8629 15.5541Z" fill="white"/>
<path d="M18.8629 15.5541H19.9462V16.0958L18.8629 15.5541Z" fill="white"/>
<path d="M20.53 16.7653L20.1952 15.735L19.6801 15.9024L20.53 16.7653Z" fill="white"/>
<path d="M20.53 16.7653L19.6536 16.1286L19.9719 15.6903L20.53 16.7653Z" fill="white"/>
<path d="M19.2565 16.7653L20.1329 16.1286L19.8145 15.6903L19.2565 16.7653Z" fill="white"/>
<path d="M19.2565 16.7653L19.5912 15.735L20.1064 15.9024L19.2565 16.7653Z" fill="white"/>
<path d="M11.7222 11.421L12.057 12.4513L11.5418 12.6187L11.7222 11.421Z" fill="white"/>
<path d="M11.7222 11.421L11.3874 12.4513L11.9026 12.6187L11.7222 11.421Z" fill="white"/>
<path d="M10.6919 12.1696H11.7753V12.7112L10.6919 12.1696Z" fill="white"/>
<path d="M10.6919 12.1696L11.5684 12.8063L11.8867 12.3681L10.6919 12.1696Z" fill="white"/>
<path d="M12.7525 12.1696L11.8761 12.8064L11.5577 12.3682L12.7525 12.1696Z" fill="white"/>
<path d="M12.7525 12.1696H11.6692V12.7113L12.7525 12.1696Z" fill="white"/>
<path d="M11.0854 13.3808L11.4202 12.3505L11.9354 12.5179L11.0854 13.3808Z" fill="white"/>
<path d="M11.0854 13.3808L11.9619 12.744L11.6435 12.3058L11.0854 13.3808Z" fill="white"/>
<path d="M12.359 13.3808L11.4825 12.744L11.8009 12.3058L12.359 13.3808Z" fill="white"/>
<path d="M12.359 13.3808L12.0242 12.3505L11.5091 12.5179L12.359 13.3808Z" fill="white"/>
<path d="M15.1068 14.8055L15.4415 15.8359L14.9264 16.0032L15.1068 14.8055Z" fill="white"/>
<path d="M15.1068 14.8055L14.772 15.8359L15.2871 16.0032L15.1068 14.8055Z" fill="white"/>
<path d="M14.0765 15.5541H15.1598V16.0957L14.0765 15.5541Z" fill="white"/>
<path d="M14.0765 15.5541L14.9529 16.1908L15.2713 15.7526L14.0765 15.5541Z" fill="white"/>
<path d="M16.1371 15.5541L15.2606 16.1909L14.9423 15.7527L16.1371 15.5541Z" fill="white"/>
<path d="M16.1371 15.5541H15.0538V16.0958L16.1371 15.5541Z" fill="white"/>
<path d="M14.47 16.7653L14.8048 15.735L15.3199 15.9024L14.47 16.7653Z" fill="white"/>
<path d="M14.47 16.7653L15.3464 16.1286L15.0281 15.6903L14.47 16.7653Z" fill="white"/>
<path d="M15.7435 16.7653L14.8671 16.1286L15.1855 15.6903L15.7435 16.7653Z" fill="white"/>
<path d="M15.7435 16.7653L15.4088 15.735L14.8936 15.9024L15.7435 16.7653Z" fill="white"/>
</g>
</g>
<defs>
<clipPath id="clip0_10_6">
<rect width="36" height="26" rx="4" fill="white"/>
</clipPath>
<clipPath id="clip1_10_6">
<rect width="39" height="26" fill="white" transform="translate(-2)"/>
</clipPath>
</defs>
</svg>
